<svg width="313" height="80" viewBox="0 0 313 80" fill="none" xmlns="http://www.w3.org/2000/svg">
<path d="M63.514 9.4C64.1006 9.29333 64.6606 9.22666 65.194 9.2C65.754 9.17333 66.3006 9.16 66.834 9.16C69.0473 9.16 70.8606 9.49333 72.274 10.16C73.714 10.8 74.8206 11.6667 75.594 12.76C76.3673 13.8267 76.8473 15.0533 77.034 16.44C77.2473 17.8 77.234 19.1867 76.994 20.6C76.6206 22.8933 75.8473 25.0533 74.674 27.08C73.5273 29.08 72.114 30.92 70.434 32.6C68.7806 34.28 66.954 35.7867 64.954 37.12C62.954 38.4533 60.914 39.5867 58.834 40.52C56.7806 41.4267 54.7673 42.1333 52.794 42.64C50.8206 43.1467 49.0473 43.4 47.474 43.4C46.5673 43.3733 45.6873 43.2267 44.834 42.96C43.474 45.4667 42.314 47.8133 41.354 50C40.4206 52.1867 39.7273 54.1333 39.274 55.84C39.0873 56.5333 38.7806 56.8933 38.354 56.92C37.954 56.9733 37.554 56.7867 37.154 56.36C36.7806 55.96 36.474 55.3733 36.234 54.6C36.0206 53.8533 35.994 53.0133 36.154 52.08C36.4473 50.5333 36.994 48.7733 37.794 46.8C38.594 44.8 39.5673 42.6667 40.714 40.4C39.6473 39.0933 39.154 37.5467 39.234 35.76L39.274 35.84C39.2206 35.3067 39.434 34.8 39.914 34.32C40.394 33.84 41.1006 33.4 42.034 33C42.1406 34.4933 42.3806 35.6933 42.754 36.6C43.8206 34.6533 44.954 32.7067 46.154 30.76C47.354 28.7867 48.5673 26.8667 49.794 25C51.0206 23.1333 52.234 21.36 53.434 19.68C54.634 17.9733 55.7806 16.4267 56.874 15.04C55.274 15.92 53.674 17.0133 52.074 18.32C50.474 19.6267 48.9273 21.0533 47.434 22.6C45.9406 24.12 44.5406 25.6933 43.234 27.32C41.9273 28.9467 40.7806 30.5333 39.794 32.08C38.8073 33.6 38.0073 35.0267 37.394 36.36C36.7806 37.6933 36.434 38.8267 36.354 39.76C36.3006 40.24 36.034 40.4533 35.554 40.4C35.074 40.3467 34.5673 40.12 34.034 39.72C33.5006 39.2933 33.034 38.72 32.634 38C32.2606 37.28 32.1406 36.5067 32.274 35.68C32.3273 35.44 32.3806 35.2 32.434 34.96C32.4873 34.6933 32.5806 34.44 32.714 34.2V34.24C33.5406 32.2133 34.5806 30.2133 35.834 28.24C37.0873 26.24 38.4873 24.3467 40.034 22.56C41.6073 20.7467 43.314 19.0667 45.154 17.52C46.994 15.9467 48.914 14.5867 50.914 13.44C52.914 12.2667 54.9806 11.3333 57.114 10.64C59.2473 9.92 61.4073 9.50666 63.594 9.4H63.514ZM63.194 12.88C62.5806 12.9333 61.9406 13.04 61.274 13.2C60.634 13.36 59.9673 13.5867 59.274 13.88C59.6473 14.0667 60.0206 14.3333 60.394 14.68C60.794 15.0267 61.1273 15.4267 61.394 15.88C61.6606 16.3067 61.834 16.76 61.914 17.24C62.0206 17.72 61.954 18.2 61.714 18.68C60.3806 20.1467 59.034 21.7333 57.674 23.44C56.3406 25.1467 55.0206 26.9067 53.714 28.72C52.434 30.5333 51.1806 32.3867 49.954 34.28C48.754 36.1733 47.6206 38.04 46.554 39.88C46.7673 39.9333 46.9806 39.96 47.194 39.96C47.434 39.96 47.674 39.96 47.914 39.96C49.3006 39.96 50.7806 39.72 52.354 39.24C53.954 38.76 55.5673 38.0933 57.194 37.24C58.8206 36.3867 60.4073 35.36 61.954 34.16C63.5006 32.96 64.914 31.64 66.194 30.2C67.474 28.76 68.5673 27.2267 69.474 25.6C70.4073 23.9467 71.0606 22.2533 71.434 20.52C71.5406 19.7733 71.5406 18.96 71.434 18.08C71.3273 17.1733 70.994 16.3467 70.434 15.6C69.874 14.8267 69.0206 14.1867 67.874 13.68C66.754 13.1467 65.194 12.88 63.194 12.88ZM83.4759 43C82.7292 43.9067 81.9025 44.84 80.9959 45.8C80.0892 46.7333 79.1292 47.5867 78.1159 48.36C77.1025 49.1333 76.0492 49.76 74.9559 50.24C73.8625 50.72 72.7825 50.9333 71.7159 50.88C71.1025 50.8533 70.5825 50.7067 70.1559 50.44C69.7292 50.1733 69.3959 49.8267 69.1559 49.4C68.9425 48.9467 68.8092 48.44 68.7559 47.88C68.7025 47.32 68.7292 46.7333 68.8359 46.12C69.0225 45.24 69.2892 44.4133 69.6359 43.64C69.9825 42.8667 70.3825 42.1333 70.8359 41.44C71.3159 40.7467 71.8225 40.0667 72.3559 39.4C72.8892 38.7333 73.4492 38.0533 74.0359 37.36L74.9959 36.24V36.28L76.1559 34.92C76.3692 34.6267 76.6492 34.36 76.9959 34.12C77.3692 33.88 77.9425 33.6533 78.7159 33.44C78.3425 33.52 78.0359 33.5867 77.7959 33.64C77.5559 33.6667 77.3425 33.7067 77.1559 33.76C76.8092 33.84 76.4625 33.92 76.1159 34C75.7692 34.08 75.3692 34.1067 74.9159 34.08H74.5159C73.7959 34.9867 73.1159 35.88 72.4759 36.76C71.8359 37.6133 71.2359 38.4267 70.6759 39.2V39.16C70.5692 39.32 70.3825 39.36 70.1159 39.28C69.8492 39.2 69.5959 39.0667 69.3559 38.88C69.1159 38.6667 68.9159 38.44 68.7559 38.2C68.6225 37.9333 68.6359 37.7067 68.7959 37.52V37.56C69.5692 36.5467 70.2225 35.6667 70.7559 34.92C71.2892 34.1467 71.7692 33.4667 72.1959 32.88C71.9825 32.4267 71.9425 31.8933 72.0759 31.28C72.2092 30.4533 72.5025 29.72 72.9559 29.08C73.4092 28.44 73.9425 27.6933 74.5559 26.84C74.7959 26.4933 75.0492 26.1067 75.3159 25.68C75.6092 25.2533 75.9025 24.7333 76.1959 24.12C76.5692 24.3333 76.9425 24.56 77.3159 24.8C77.6892 25.0133 78.0092 25.28 78.2759 25.6C78.5692 25.8933 78.7825 26.24 78.9159 26.64C79.0492 27.04 79.0759 27.4933 78.9959 28C78.9425 28.24 78.8759 28.5067 78.7959 28.8C78.7159 29.0667 78.5692 29.3867 78.3559 29.76L76.6759 31.56C76.5425 31.72 76.6092 31.7467 76.8759 31.64C77.1425 31.5067 77.5292 31.2933 78.0359 31C78.5425 30.7067 79.1159 30.36 79.7559 29.96C80.3959 29.56 81.0225 29.16 81.6359 28.76C82.2492 28.36 82.7825 27.9867 83.2359 27.64C83.7159 27.2933 84.0492 27.0267 84.2359 26.84C84.3959 26.84 84.5959 26.92 84.8359 27.08C85.0759 27.24 85.3025 27.4267 85.5159 27.64C85.7559 27.8267 85.9559 28.0133 86.1159 28.2C86.3025 28.36 86.4092 28.4667 86.4359 28.52C86.6492 28.9733 86.6492 29.52 86.4359 30.16C86.2225 30.7733 85.8625 31.4533 85.3559 32.2C84.8759 32.9467 84.2759 33.7467 83.5559 34.6C82.8625 35.4267 82.1292 36.28 81.3559 37.16C80.9025 37.64 80.4625 38.12 80.0359 38.6C79.6092 39.08 79.1825 39.5733 78.7559 40.08C78.4359 40.4533 78.0759 40.88 77.6759 41.36C77.2759 41.84 76.8892 42.3333 76.5159 42.84C76.1425 43.32 75.8225 43.8 75.5559 44.28C75.2892 44.76 75.1292 45.16 75.0759 45.48C75.0225 45.64 75.1559 45.72 75.4759 45.72C75.7692 45.7467 76.1559 45.6533 76.6359 45.44C77.1159 45.2 77.6359 44.88 78.1959 44.48C78.7559 44.0533 79.3292 43.56 79.9159 43C80.5025 42.44 81.0492 41.8267 81.5559 41.16H81.5159C82.2092 40.3067 82.8625 39.4667 83.4759 38.64C84.0892 37.8133 84.5825 37.1067 84.9559 36.52C85.0892 36.3867 85.2892 36.3733 85.5559 36.48C85.8225 36.56 86.0759 36.7067 86.3159 36.92C86.5559 37.1333 86.7425 37.3867 86.8759 37.68C87.0092 37.9467 86.9959 38.1733 86.8359 38.36L86.8759 38.28L85.4359 40.28L83.5559 42.96L83.4759 43ZM90.4218 27.12C90.8218 26.9333 91.2885 26.9733 91.8218 27.24C92.3551 27.48 92.8218 27.8533 93.2218 28.36C93.6218 28.84 93.9018 29.4133 94.0618 30.08C94.2218 30.72 94.1285 31.3467 93.7818 31.96C93.8351 31.9067 93.8085 31.96 93.7018 32.12C93.5951 32.28 93.4485 32.4933 93.2618 32.76C93.0751 33.0267 92.8618 33.3333 92.6218 33.68C92.3818 34.0267 92.1685 34.3467 91.9818 34.64C91.5018 35.3333 90.9685 36.1067 90.3818 36.96C89.8218 37.7867 89.2485 38.64 88.6618 39.52C88.1018 40.3733 87.5551 41.2133 87.0218 42.04C86.5151 42.8667 86.0751 43.6 85.7018 44.24C85.3551 44.88 85.1018 45.4 84.9418 45.8C84.7818 46.1733 84.7818 46.36 84.9418 46.36H85.2218C86.0485 46.0933 86.8618 45.6533 87.6618 45.04C88.4885 44.4267 89.3018 43.7333 90.1018 42.96C90.9018 42.16 91.6618 41.32 92.3818 40.44C93.1285 39.56 93.8351 38.6933 94.5018 37.84L94.5418 37.92C94.7018 37.7067 94.8618 37.48 95.0218 37.24C95.1818 37 95.3418 36.7867 95.5018 36.6C95.6351 36.44 95.8351 36.4133 96.1018 36.52C96.3685 36.6 96.6218 36.7467 96.8618 36.96C97.1018 37.1733 97.2885 37.4267 97.4218 37.72C97.5551 37.9867 97.5418 38.2133 97.3818 38.4L97.3418 38.36L96.2218 39.76L96.1818 39.8C94.9018 41.4 93.5551 43 92.1418 44.6C90.7285 46.2 89.1818 47.6133 87.5018 48.84C87.2351 49.0267 86.9018 49.2533 86.5018 49.52C86.1285 49.76 85.7151 49.9867 85.2618 50.2C84.8085 50.4133 84.3285 50.5867 83.8218 50.72C83.3151 50.88 82.8218 50.96 82.3418 50.96C81.3018 50.9333 80.6085 50.5333 80.2618 49.76C79.8885 48.96 79.7951 47.9733 79.9818 46.8C80.1685 45.8933 80.4618 44.9867 80.8618 44.08L80.8218 44.12C81.3551 42.7867 82.1151 41.24 83.1018 39.48C84.1151 37.72 85.1551 35.96 86.2218 34.2C86.9151 33 87.5818 31.84 88.2218 30.72C88.8885 29.5733 89.4485 28.5333 89.9018 27.6L90.4218 27.12ZM98.8218 16.84C98.9818 16.68 99.1685 16.8133 99.3818 17.24C99.6218 17.64 99.8218 18.1333 99.9818 18.72C100.142 19.3067 100.248 19.8933 100.302 20.48C100.355 21.04 100.302 21.4 100.142 21.56C98.9951 22.4133 97.9951 23.08 97.1418 23.56C96.2885 24.04 95.4351 24.5067 94.5818 24.96L92.9018 25.88C92.6085 26.0667 92.3285 26.1467 92.0618 26.12C91.7951 26.0667 91.5818 25.9467 91.4218 25.76C91.2885 25.5733 91.2218 25.3333 91.2218 25.04C91.2485 24.72 91.3818 24.3733 91.6218 24L98.8218 16.84ZM115.05 42.16C114.543 42.8533 113.876 43.6933 113.05 44.68C112.223 45.6667 111.316 46.6267 110.33 47.56C109.343 48.4933 108.33 49.2933 107.29 49.96C106.276 50.6 105.316 50.92 104.41 50.92C103.85 50.92 103.316 50.8133 102.81 50.6C102.303 50.4133 101.89 50.1067 101.57 49.68C101.25 49.2533 101.023 48.7067 100.89 48.04C100.783 47.3467 100.823 46.5333 101.01 45.6C101.196 44.8 101.423 44.0133 101.69 43.24C101.983 42.4667 102.33 41.6533 102.73 40.8C103.156 39.9467 103.636 39.0267 104.17 38.04C104.703 37.0267 105.316 35.8933 106.01 34.64C106.33 34.1067 106.583 33.6133 106.77 33.16C106.983 32.68 107.116 32.2933 107.17 32L105.25 33.64C104.13 34.5733 103.09 35.5067 102.13 36.44C101.196 37.3733 100.236 38.4 99.2496 39.52C98.3429 41.1733 97.5296 42.8667 96.8096 44.6C96.0896 46.3067 95.5029 48.04 95.0496 49.8C94.9429 50.0933 94.6629 50.2267 94.2096 50.2C93.7563 50.1733 93.2763 50.0533 92.7696 49.84C92.2896 49.6 91.8629 49.3067 91.4896 48.96C91.0896 48.6133 90.9029 48.2667 90.9296 47.92C91.1696 46.72 91.4763 45.56 91.8496 44.44C92.2496 43.2933 92.6896 42.1733 93.1696 41.08C93.6496 39.96 94.1563 38.8667 94.6896 37.8C95.2496 36.7067 95.8096 35.6133 96.3696 34.52C97.0096 33.24 97.6363 32 98.2496 30.8C98.8629 29.5733 99.4096 28.4 99.8896 27.28C100.21 27.12 100.596 27.12 101.05 27.28C101.53 27.4133 101.983 27.64 102.41 27.96C102.836 28.28 103.21 28.68 103.53 29.16C103.85 29.6133 104.05 30.0933 104.13 30.6C105.276 29.64 106.436 28.8267 107.61 28.16C108.783 27.4933 109.956 27.12 111.13 27.04C111.503 27.04 111.863 27.2133 112.21 27.56C112.583 27.88 112.903 28.28 113.17 28.76C113.436 29.24 113.61 29.76 113.69 30.32C113.77 30.88 113.716 31.3733 113.53 31.8C112.836 33.16 112.156 34.44 111.49 35.64C110.823 36.8133 110.25 37.8267 109.77 38.68C109.343 39.4267 108.943 40.12 108.57 40.76C108.223 41.3733 107.903 41.9867 107.61 42.6C107.343 43.2133 107.09 43.84 106.85 44.48C106.636 45.12 106.436 45.8133 106.25 46.56C106.276 46.5067 106.37 46.4267 106.53 46.32H106.49C107.29 45.92 108.276 45.24 109.45 44.28C110.623 43.32 111.85 42.0133 113.13 40.36C113.476 39.9333 113.796 39.52 114.09 39.12C114.41 38.72 114.716 38.32 115.01 37.92L115.77 36.76C115.876 36.6267 116.076 36.6 116.37 36.68C116.663 36.7333 116.93 36.8533 117.17 37.04C117.436 37.2267 117.636 37.4533 117.77 37.72C117.93 37.96 117.93 38.1733 117.77 38.36L117.81 38.28L115.09 42.12L115.05 42.16ZM133.319 39.72C132.466 40.92 131.426 42.2533 130.199 43.72C128.999 45.16 127.626 46.56 126.079 47.92C125.173 48.6667 124.293 49.2533 123.439 49.68C122.586 50.08 121.799 50.3733 121.079 50.56C120.359 50.7733 119.706 50.8933 119.119 50.92C118.559 50.9733 118.119 51 117.799 51C115.719 51 114.213 50.4 113.279 49.2C112.373 48 112.053 46.36 112.319 44.28C112.559 42.4667 113.133 40.6933 114.039 38.96C114.973 37.2267 116.279 35.3467 117.959 33.32C118.546 32.6533 119.279 31.9467 120.159 31.2C121.039 30.4267 121.999 29.72 123.039 29.08C124.079 28.44 125.159 27.92 126.279 27.52C127.426 27.12 128.519 26.9333 129.559 26.96C130.653 26.9867 131.466 27.36 131.999 28.08C132.559 28.7733 132.733 29.6933 132.519 30.84C132.359 31.9067 131.879 32.9733 131.079 34.04C130.759 34.3867 130.426 34.6 130.079 34.68C129.759 34.7333 129.479 34.68 129.239 34.52C129.026 34.36 128.866 34.1067 128.759 33.76C128.679 33.4133 128.719 33.0133 128.879 32.56C129.199 32.1333 129.386 31.7067 129.439 31.28C129.466 31.1467 129.439 31.0533 129.359 31C129.306 30.92 129.173 30.9067 128.959 30.96C127.893 31.1733 126.826 31.6933 125.759 32.52C124.719 33.3467 123.746 34.2933 122.839 35.36C121.933 36.4267 121.133 37.5467 120.439 38.72C119.746 39.8667 119.226 40.88 118.879 41.76L118.439 43.36C118.386 43.76 118.359 44.16 118.359 44.56C118.359 44.9333 118.399 45.2933 118.479 45.64C118.586 45.96 118.733 46.2533 118.919 46.52C119.133 46.76 119.399 46.92 119.719 47L119.639 46.96C120.146 47.0933 120.759 47.0533 121.479 46.84C122.226 46.6267 123.026 46.2533 123.879 45.72C124.759 45.16 125.679 44.44 126.639 43.56C127.599 42.68 128.559 41.64 129.519 40.44C130.026 39.8 130.506 39.1467 130.959 38.48C131.439 37.7867 131.893 37.1333 132.319 36.52C132.613 36.1733 132.946 35.9867 133.319 35.96C133.693 35.9333 134.013 36.0133 134.279 36.2C134.546 36.3867 134.706 36.6667 134.759 37.04C134.813 37.3867 134.666 37.8 134.319 38.28L133.319 39.72ZM137.883 27.12C138.283 26.9333 138.749 26.9733 139.283 27.24C139.816 27.48 140.283 27.8533 140.683 28.36C141.083 28.84 141.363 29.4133 141.523 30.08C141.683 30.72 141.589 31.3467 141.243 31.96C141.296 31.9067 141.269 31.96 141.163 32.12C141.056 32.28 140.909 32.4933 140.723 32.76C140.536 33.0267 140.323 33.3333 140.083 33.68C139.843 34.0267 139.629 34.3467 139.443 34.64C138.963 35.3333 138.429 36.1067 137.843 36.96C137.283 37.7867 136.709 38.64 136.123 39.52C135.563 40.3733 135.016 41.2133 134.483 42.04C133.976 42.8667 133.536 43.6 133.163 44.24C132.816 44.88 132.563 45.4 132.403 45.8C132.243 46.1733 132.243 46.36 132.403 46.36H132.683C133.536 46.0933 134.376 45.6667 135.203 45.08C136.029 44.4667 136.816 43.7733 137.563 43C138.336 42.2267 139.083 41.4133 139.803 40.56C140.523 39.68 141.216 38.84 141.883 38.04L142.603 37.08C142.763 36.92 142.976 36.8933 143.243 37C143.509 37.08 143.749 37.24 143.963 37.48C144.203 37.6933 144.376 37.9467 144.483 38.24C144.589 38.5067 144.563 38.7333 144.403 38.92L144.443 38.84C143.109 40.5733 141.616 42.3333 139.963 44.12C138.309 45.9067 136.643 47.48 134.963 48.84C134.696 49.0267 134.363 49.2533 133.963 49.52C133.589 49.76 133.176 49.9867 132.723 50.2C132.269 50.4133 131.789 50.5867 131.283 50.72C130.776 50.88 130.283 50.96 129.803 50.96C128.763 50.9333 128.069 50.5333 127.723 49.76C127.349 48.96 127.256 47.9733 127.443 46.8C127.629 45.8933 127.923 44.9867 128.323 44.08L128.283 44.12C128.816 42.7867 129.576 41.24 130.563 39.48C131.576 37.72 132.616 35.96 133.683 34.2C134.376 33 135.043 31.84 135.683 30.72C136.349 29.5733 136.909 28.5333 137.363 27.6L137.883 27.12ZM143.963 14.88C144.283 14.8267 144.656 15.0133 145.083 15.44C145.536 15.84 145.949 16.32 146.323 16.88C146.723 17.4133 147.043 17.96 147.283 18.52C147.549 19.0533 147.656 19.44 147.603 19.68C147.309 20.4533 146.976 21.1333 146.603 21.72C146.256 22.3067 145.896 22.9067 145.523 23.52C145.149 24.1333 144.763 24.76 144.363 25.4C143.989 26.04 143.616 26.7867 143.243 27.64C142.923 27.56 142.576 27.3733 142.203 27.08C141.856 26.76 141.536 26.4 141.243 26C140.949 25.6 140.709 25.1867 140.523 24.76C140.363 24.3333 140.309 23.9733 140.363 23.68C140.496 23.1467 140.669 22.56 140.883 21.92C141.123 21.28 141.389 20.6133 141.683 19.92C141.976 19.2267 142.256 18.52 142.523 17.8C142.789 17.08 143.003 16.3867 143.163 15.72L143.963 14.88ZM147.311 27.28C147.631 27.12 148.004 27.1067 148.431 27.24C148.857 27.3467 149.284 27.56 149.711 27.88C150.137 28.1733 150.511 28.5333 150.831 28.96C151.177 29.3867 151.404 29.84 151.511 30.32C152.897 29.3067 154.311 28.4933 155.751 27.88C157.191 27.24 158.511 27 159.711 27.16C160.537 27.2933 161.204 27.5467 161.711 27.92C162.244 28.2933 162.644 28.76 162.911 29.32C163.177 29.88 163.324 30.5067 163.351 31.2C163.377 31.8667 163.324 32.5733 163.191 33.32C162.977 34.5733 162.617 35.7733 162.111 36.92C161.364 38.5733 160.404 40.2 159.231 41.8C158.084 43.3733 156.817 44.8 155.431 46.08C154.071 47.36 152.631 48.4267 151.111 49.28C149.591 50.1067 148.097 50.6 146.631 50.76C145.404 50.7333 144.431 50.4667 143.711 49.96C142.991 49.4267 142.484 48.7733 142.191 48C141.817 48.8267 141.497 49.6533 141.231 50.48C140.964 51.3067 140.711 52.16 140.471 53.04C140.231 53.92 140.004 54.8267 139.791 55.76C139.577 56.6933 139.337 57.6667 139.071 58.68C138.991 59 138.724 59.16 138.271 59.16C137.817 59.16 137.351 59.04 136.871 58.8C136.364 58.5867 135.911 58.3067 135.511 57.96C135.111 57.6133 134.911 57.2533 134.911 56.88C135.017 54.8533 135.364 52.88 135.951 50.96C136.537 49.0667 137.257 47.2 138.111 45.36C138.964 43.52 139.897 41.6933 140.911 39.88C141.924 38.0667 142.937 36.2267 143.951 34.36C144.564 33.08 145.164 31.84 145.751 30.64C146.364 29.44 146.884 28.32 147.311 27.28ZM145.631 42.16C145.577 42.2133 145.551 42.2533 145.551 42.28C145.497 42.44 145.444 42.6133 145.391 42.8C145.364 42.9867 145.324 43.1733 145.271 43.36C145.191 43.9467 145.217 44.48 145.351 44.96C145.484 45.4133 145.857 45.6667 146.471 45.72C147.057 45.7733 147.737 45.5867 148.511 45.16C149.284 44.7333 150.084 44.16 150.911 43.44C151.737 42.6933 152.564 41.84 153.391 40.88C154.217 39.92 154.964 38.96 155.631 38C156.324 37.0133 156.897 36.0533 157.351 35.12C157.804 34.1867 158.097 33.3733 158.231 32.68C158.364 31.8533 158.111 31.4267 157.471 31.4C156.884 31.3733 156.231 31.4667 155.511 31.68C154.817 31.8933 154.097 32.2133 153.351 32.64C152.604 33.04 151.857 33.5333 151.111 34.12C150.364 34.7067 149.671 35.3333 149.031 36C148.497 36.96 147.924 37.9867 147.311 39.08C146.724 40.1467 146.177 41.1733 145.671 42.16H145.631ZM180.258 34.24C178.658 36.64 176.765 38.64 174.578 40.24C172.418 41.84 170.098 43.0267 167.618 43.8C167.538 44.52 167.578 45.2 167.738 45.84C167.925 46.48 168.325 46.8667 168.938 47L168.858 46.96C169.365 47.0933 169.978 47.0533 170.698 46.84C171.445 46.6267 172.245 46.2533 173.098 45.72C173.978 45.16 174.898 44.44 175.858 43.56C176.818 42.68 177.778 41.64 178.738 40.44C179.245 39.8 179.725 39.1467 180.178 38.48C180.658 37.7867 181.111 37.1333 181.538 36.52C181.831 36.1733 182.151 35.9867 182.498 35.96C182.871 35.9333 183.178 36.0267 183.418 36.24C183.685 36.4267 183.845 36.7067 183.898 37.08C183.978 37.4267 183.858 37.8267 183.538 38.28L182.538 39.72C181.685 40.92 180.645 42.2533 179.418 43.72C178.218 45.16 176.845 46.56 175.298 47.92C174.391 48.6667 173.511 49.2533 172.658 49.68C171.805 50.08 171.018 50.3733 170.298 50.56C169.578 50.7733 168.925 50.8933 168.338 50.92C167.778 50.9733 167.338 51 167.018 51C164.938 51 163.431 50.4 162.498 49.2C161.591 48 161.271 46.36 161.538 44.28C161.778 42.4667 162.351 40.6933 163.258 38.96C164.191 37.2267 165.498 35.3467 167.178 33.32C167.765 32.6533 168.498 31.9467 169.378 31.2C170.258 30.4267 171.218 29.72 172.258 29.08C173.298 28.44 174.378 27.92 175.498 27.52C176.645 27.12 177.738 26.9333 178.778 26.96C179.871 26.9867 180.698 27.36 181.258 28.08C181.818 28.7733 181.991 29.72 181.778 30.92C181.698 31.4533 181.525 32 181.258 32.56C181.018 33.0933 180.671 33.6667 180.218 34.28L180.258 34.24ZM178.178 30.96C177.218 31.1467 176.271 31.5733 175.338 32.24C174.405 32.9067 173.525 33.6933 172.698 34.6C171.871 35.5067 171.111 36.48 170.418 37.52C169.725 38.5333 169.151 39.4933 168.698 40.4C170.591 39.6267 172.351 38.5867 173.978 37.28C175.605 35.9467 176.991 34.36 178.138 32.52V32.56C178.298 32.3467 178.405 32.1333 178.458 31.92C178.538 31.7067 178.605 31.52 178.658 31.36C178.711 30.9867 178.551 30.8533 178.178 30.96ZM201.606 28.36C199.579 31.64 197.739 34.5467 196.086 37.08C194.459 39.6133 192.966 41.8933 191.606 43.92L190.566 45.52C191.286 45.3333 191.993 44.9867 192.686 44.48C193.379 43.9733 194.059 43.4 194.726 42.76C195.393 42.0933 196.033 41.3867 196.646 40.64C197.286 39.8667 197.913 39.12 198.526 38.4L198.486 38.44L199.966 36.64C200.073 36.5333 200.259 36.5333 200.526 36.64C200.819 36.72 201.086 36.8533 201.326 37.04C201.566 37.2267 201.753 37.4533 201.886 37.72C202.019 37.96 202.006 38.1733 201.846 38.36C201.686 38.5733 201.526 38.8 201.366 39.04C201.206 39.28 201.059 39.4933 200.926 39.68V39.6C200.579 40.08 200.259 40.5333 199.966 40.96C199.673 41.36 199.366 41.7733 199.046 42.2C198.726 42.6 198.379 43.0133 198.006 43.44C197.659 43.8667 197.246 44.3333 196.766 44.84C196.286 45.32 195.766 45.8 195.206 46.28C194.673 46.76 194.099 47.2 193.486 47.6C192.899 47.9733 192.286 48.2933 191.646 48.56C191.033 48.8267 190.406 49 189.766 49.08L189.806 49.56L189.766 49.72C189.819 50.1733 189.833 50.6133 189.806 51.04C189.779 51.4667 189.726 51.9333 189.646 52.44C189.406 53.88 188.966 55.36 188.326 56.88C187.686 58.4267 186.953 59.8267 186.126 61.08C185.273 62.36 184.366 63.4 183.406 64.2C182.446 65.0267 181.526 65.44 180.646 65.44C179.659 65.3867 178.993 64.9867 178.646 64.24C178.273 63.4933 178.126 62.5733 178.206 61.48C178.206 61.4533 178.206 61.4267 178.206 61.4C178.179 61.3733 178.166 61.3333 178.166 61.28C178.513 59.6267 179.019 57.96 179.686 56.28C180.353 54.6 181.126 52.92 182.006 51.24C182.859 49.5867 183.779 47.9333 184.766 46.28C185.753 44.6 186.753 42.9467 187.766 41.32L189.286 38.92L194.006 30.96L197.286 25.6C197.899 24.56 198.513 23.52 199.126 22.48C199.739 21.4133 200.313 20.3733 200.846 19.36C201.406 18.3467 201.913 17.3733 202.366 16.44C202.846 15.5067 203.246 14.64 203.566 13.84C203.966 13.6267 204.459 13.64 205.046 13.88C205.659 14.0933 206.206 14.44 206.686 14.92C207.166 15.3733 207.526 15.92 207.766 16.56C208.006 17.2 207.966 17.8133 207.646 18.4L207.686 18.36C207.526 18.7333 207.233 19.2933 206.806 20.04C206.379 20.76 205.873 21.5867 205.286 22.52C204.726 23.4267 204.126 24.4 203.486 25.44C202.846 26.4533 202.219 27.4267 201.606 28.36ZM186.446 53.44C186.499 53.1467 186.539 52.8667 186.566 52.6C186.593 52.3333 186.619 52.0533 186.646 51.76C185.633 53.4933 184.766 55.1467 184.046 56.72C183.326 58.2933 182.713 59.9867 182.206 61.8C182.713 61.4533 183.206 60.9733 183.686 60.36C184.139 59.7467 184.553 59.0667 184.926 58.32C185.273 57.6 185.579 56.8133 185.846 55.96C186.113 55.1333 186.313 54.2933 186.446 53.44ZM214.14 43C213.393 43.9067 212.567 44.84 211.66 45.8C210.753 46.7333 209.793 47.5867 208.78 48.36C207.767 49.1333 206.713 49.76 205.62 50.24C204.527 50.72 203.447 50.9333 202.38 50.88C201.767 50.8533 201.247 50.7067 200.82 50.44C200.393 50.1733 200.06 49.8267 199.82 49.4C199.607 48.9467 199.473 48.44 199.42 47.88C199.367 47.32 199.393 46.7333 199.5 46.12C199.687 45.24 199.953 44.4133 200.3 43.64C200.647 42.8667 201.047 42.1333 201.5 41.44C201.98 40.7467 202.487 40.0667 203.02 39.4C203.553 38.7333 204.113 38.0533 204.7 37.36L205.66 36.24V36.28L206.82 34.92C207.033 34.6267 207.313 34.36 207.66 34.12C208.033 33.88 208.607 33.6533 209.38 33.44C209.007 33.52 208.7 33.5867 208.46 33.64C208.22 33.6667 208.007 33.7067 207.82 33.76C207.473 33.84 207.127 33.92 206.78 34C206.433 34.08 206.033 34.1067 205.58 34.08H205.18C204.46 34.9867 203.78 35.88 203.14 36.76C202.5 37.6133 201.9 38.4267 201.34 39.2V39.16C201.233 39.32 201.047 39.36 200.78 39.28C200.513 39.2 200.26 39.0667 200.02 38.88C199.78 38.6667 199.58 38.44 199.42 38.2C199.287 37.9333 199.3 37.7067 199.46 37.52V37.56C200.233 36.5467 200.887 35.6667 201.42 34.92C201.953 34.1467 202.433 33.4667 202.86 32.88C202.647 32.4267 202.607 31.8933 202.74 31.28C202.873 30.4533 203.167 29.72 203.62 29.08C204.073 28.44 204.607 27.6933 205.22 26.84C205.46 26.4933 205.713 26.1067 205.98 25.68C206.273 25.2533 206.567 24.7333 206.86 24.12C207.233 24.3333 207.607 24.56 207.98 24.8C208.353 25.0133 208.673 25.28 208.94 25.6C209.233 25.8933 209.447 26.24 209.58 26.64C209.713 27.04 209.74 27.4933 209.66 28C209.607 28.24 209.54 28.5067 209.46 28.8C209.38 29.0667 209.233 29.3867 209.02 29.76L207.34 31.56C207.207 31.72 207.273 31.7467 207.54 31.64C207.807 31.5067 208.193 31.2933 208.7 31C209.207 30.7067 209.78 30.36 210.42 29.96C211.06 29.56 211.687 29.16 212.3 28.76C212.913 28.36 213.447 27.9867 213.9 27.64C214.38 27.2933 214.713 27.0267 214.9 26.84C215.06 26.84 215.26 26.92 215.5 27.08C215.74 27.24 215.967 27.4267 216.18 27.64C216.42 27.8267 216.62 28.0133 216.78 28.2C216.967 28.36 217.073 28.4667 217.1 28.52C217.313 28.9733 217.313 29.52 217.1 30.16C216.887 30.7733 216.527 31.4533 216.02 32.2C215.54 32.9467 214.94 33.7467 214.22 34.6C213.527 35.4267 212.793 36.28 212.02 37.16C211.567 37.64 211.127 38.12 210.7 38.6C210.273 39.08 209.847 39.5733 209.42 40.08C209.1 40.4533 208.74 40.88 208.34 41.36C207.94 41.84 207.553 42.3333 207.18 42.84C206.807 43.32 206.487 43.8 206.22 44.28C205.953 44.76 205.793 45.16 205.74 45.48C205.687 45.64 205.82 45.72 206.14 45.72C206.433 45.7467 206.82 45.6533 207.3 45.44C207.78 45.2 208.3 44.88 208.86 44.48C209.42 44.0533 209.993 43.56 210.58 43C211.167 42.44 211.713 41.8267 212.22 41.16H212.18C212.873 40.3067 213.527 39.4667 214.14 38.64C214.753 37.8133 215.247 37.1067 215.62 36.52C215.753 36.3867 215.953 36.3733 216.22 36.48C216.487 36.56 216.74 36.7067 216.98 36.92C217.22 37.1333 217.407 37.3867 217.54 37.68C217.673 37.9467 217.66 38.1733 217.5 38.36L217.54 38.28L216.1 40.28L214.22 42.96L214.14 43ZM230.766 34.24C229.166 36.64 227.273 38.64 225.086 40.24C222.926 41.84 220.606 43.0267 218.126 43.8C218.046 44.52 218.086 45.2 218.246 45.84C218.433 46.48 218.833 46.8667 219.446 47L219.366 46.96C219.873 47.0933 220.486 47.0533 221.206 46.84C221.953 46.6267 222.753 46.2533 223.606 45.72C224.486 45.16 225.406 44.44 226.366 43.56C227.326 42.68 228.286 41.64 229.246 40.44C229.753 39.8 230.233 39.1467 230.686 38.48C231.166 37.7867 231.619 37.1333 232.046 36.52C232.339 36.1733 232.659 35.9867 233.006 35.96C233.379 35.9333 233.686 36.0267 233.926 36.24C234.193 36.4267 234.353 36.7067 234.406 37.08C234.486 37.4267 234.366 37.8267 234.046 38.28L233.046 39.72C232.193 40.92 231.153 42.2533 229.926 43.72C228.726 45.16 227.353 46.56 225.806 47.92C224.899 48.6667 224.019 49.2533 223.166 49.68C222.313 50.08 221.526 50.3733 220.806 50.56C220.086 50.7733 219.433 50.8933 218.846 50.92C218.286 50.9733 217.846 51 217.526 51C215.446 51 213.939 50.4 213.006 49.2C212.099 48 211.779 46.36 212.046 44.28C212.286 42.4667 212.859 40.6933 213.766 38.96C214.699 37.2267 216.006 35.3467 217.686 33.32C218.273 32.6533 219.006 31.9467 219.886 31.2C220.766 30.4267 221.726 29.72 222.766 29.08C223.806 28.44 224.886 27.92 226.006 27.52C227.153 27.12 228.246 26.9333 229.286 26.96C230.379 26.9867 231.206 27.36 231.766 28.08C232.326 28.7733 232.499 29.72 232.286 30.92C232.206 31.4533 232.033 32 231.766 32.56C231.526 33.0933 231.179 33.6667 230.726 34.28L230.766 34.24ZM228.686 30.96C227.726 31.1467 226.779 31.5733 225.846 32.24C224.913 32.9067 224.033 33.6933 223.206 34.6C222.379 35.5067 221.619 36.48 220.926 37.52C220.233 38.5333 219.659 39.4933 219.206 40.4C221.099 39.6267 222.859 38.5867 224.486 37.28C226.113 35.9467 227.499 34.36 228.646 32.52V32.56C228.806 32.3467 228.913 32.1333 228.966 31.92C229.046 31.7067 229.113 31.52 229.166 31.36C229.219 30.9867 229.059 30.8533 228.686 30.96ZM226.609 44.92C226.823 43.8 227.249 42.7067 227.889 41.64C228.529 40.5733 229.289 39.72 230.169 39.08L231.289 37.64C232.196 36.36 233.116 35.0933 234.049 33.84C235.009 32.5867 235.996 31.3733 237.009 30.2C237.223 29.9867 237.409 29.7733 237.569 29.56C237.729 29.3467 237.903 29.1333 238.089 28.92C238.649 28.2 239.289 27.4267 240.009 26.6C240.756 25.7733 241.796 24.8133 243.129 23.72C243.503 23.9333 243.956 24.24 244.489 24.64C245.023 25.0133 245.463 25.44 245.809 25.92C246.183 26.3733 246.396 26.8533 246.449 27.36C246.503 27.8667 246.249 28.32 245.689 28.72L245.809 28.68C245.276 29.1333 244.889 29.4933 244.649 29.76C244.436 30 244.196 30.2933 243.929 30.64L243.289 31.44C242.596 32.3733 242.063 33.36 241.689 34.4C241.343 35.44 241.076 36.4667 240.889 37.48C240.783 38.04 240.703 38.6133 240.649 39.2C240.596 39.76 240.543 40.3333 240.489 40.92L240.209 43.32C240.049 44.52 239.716 45.6267 239.209 46.64C238.703 47.6267 238.063 48.4667 237.289 49.16C236.543 49.8533 235.689 50.3733 234.729 50.72C233.796 51.0933 232.809 51.2533 231.769 51.2C230.729 51.12 229.849 50.8933 229.129 50.52C228.409 50.1467 227.849 49.68 227.449 49.12C227.023 48.56 226.743 47.92 226.609 47.2C226.476 46.48 226.476 45.72 226.609 44.92ZM235.529 37.52C235.556 37.3067 235.596 37.0933 235.649 36.88C235.703 36.64 235.756 36.4133 235.809 36.2L234.129 38.44L234.089 38.48C234.143 38.6933 234.196 39.0667 234.249 39.6C234.303 40.1067 234.316 40.6533 234.289 41.24C234.263 41.8 234.183 42.3467 234.049 42.88C233.943 43.3867 233.756 43.76 233.489 44C233.329 43.5733 233.063 43.3333 232.689 43.28C232.316 43.2 231.929 43.2533 231.529 43.44C231.129 43.6267 230.769 43.8933 230.449 44.24C230.129 44.56 229.929 44.8933 229.849 45.24C229.823 45.3733 229.823 45.5467 229.849 45.76C229.876 45.9467 229.916 46.1333 229.969 46.32C230.156 46.7467 230.436 47.0667 230.809 47.28C231.183 47.4667 231.556 47.5867 231.929 47.64C232.329 47.6933 232.689 47.6267 233.009 47.44C233.329 47.2533 233.609 47 233.849 46.68C234.116 46.36 234.329 45.9867 234.489 45.56C234.676 45.1333 234.809 44.68 234.889 44.2C234.996 43.24 235.076 42.2267 235.129 41.16C235.183 40.6 235.223 40.0133 235.249 39.4C235.303 38.7867 235.396 38.16 235.529 37.52ZM261.913 39.72C261.06 40.92 260.02 42.2533 258.793 43.72C257.593 45.16 256.22 46.56 254.673 47.92C253.766 48.6667 252.886 49.2533 252.033 49.68C251.18 50.08 250.393 50.3733 249.673 50.56C248.953 50.7733 248.3 50.8933 247.713 50.92C247.153 50.9733 246.713 51 246.393 51C244.313 51 242.806 50.4 241.873 49.2C240.966 48 240.646 46.36 240.913 44.28C241.153 42.4667 241.726 40.6933 242.633 38.96C243.566 37.2267 244.873 35.3467 246.553 33.32C247.14 32.6533 247.873 31.9467 248.753 31.2C249.633 30.4267 250.593 29.72 251.633 29.08C252.673 28.44 253.753 27.92 254.873 27.52C256.02 27.12 257.113 26.9333 258.153 26.96C259.246 26.9867 260.06 27.36 260.593 28.08C261.153 28.7733 261.326 29.6933 261.113 30.84C260.953 31.9067 260.473 32.9733 259.673 34.04C259.353 34.3867 259.02 34.6 258.673 34.68C258.353 34.7333 258.073 34.68 257.833 34.52C257.62 34.36 257.46 34.1067 257.353 33.76C257.273 33.4133 257.313 33.0133 257.473 32.56C257.793 32.1333 257.98 31.7067 258.033 31.28C258.06 31.1467 258.033 31.0533 257.953 31C257.9 30.92 257.766 30.9067 257.553 30.96C256.486 31.1733 255.42 31.6933 254.353 32.52C253.313 33.3467 252.34 34.2933 251.433 35.36C250.526 36.4267 249.726 37.5467 249.033 38.72C248.34 39.8667 247.82 40.88 247.473 41.76L247.033 43.36C246.98 43.76 246.953 44.16 246.953 44.56C246.953 44.9333 246.993 45.2933 247.073 45.64C247.18 45.96 247.326 46.2533 247.513 46.52C247.726 46.76 247.993 46.92 248.313 47L248.233 46.96C248.74 47.0933 249.353 47.0533 250.073 46.84C250.82 46.6267 251.62 46.2533 252.473 45.72C253.353 45.16 254.273 44.44 255.233 43.56C256.193 42.68 257.153 41.64 258.113 40.44C258.62 39.8 259.1 39.1467 259.553 38.48C260.033 37.7867 260.486 37.1333 260.913 36.52C261.206 36.1733 261.54 35.9867 261.913 35.96C262.286 35.9333 262.606 36.0133 262.873 36.2C263.14 36.3867 263.3 36.6667 263.353 37.04C263.406 37.3867 263.26 37.8 262.913 38.28L261.913 39.72ZM274.476 26.84C275.543 27.0533 276.316 27.5733 276.796 28.4C277.303 29.2267 277.583 30.16 277.636 31.2C277.903 31.5733 278.09 32.0267 278.196 32.56C278.303 33.0933 278.356 33.6933 278.356 34.36C278.303 34.5733 278.263 34.7867 278.236 35C278.236 35.2133 278.21 35.4667 278.156 35.76C277.97 36.9067 277.623 38.08 277.116 39.28C276.636 40.4533 276.05 41.6 275.356 42.72C274.663 43.8133 273.876 44.8667 272.996 45.88C272.116 46.8667 271.196 47.7333 270.236 48.48C269.276 49.2 268.29 49.7733 267.276 50.2C266.29 50.6267 265.33 50.84 264.396 50.84C262.663 50.8133 261.236 50.24 260.116 49.12C258.996 48 258.41 46.2667 258.356 43.92C258.356 43.6267 258.37 43.32 258.396 43C258.423 42.6533 258.463 42.2933 258.516 41.92C258.703 40.7733 259.076 39.6 259.636 38.4C260.196 37.1733 260.876 35.9867 261.676 34.84C262.476 33.6933 263.383 32.6133 264.396 31.6C265.436 30.5867 266.516 29.72 267.636 29C268.756 28.2533 269.89 27.6933 271.036 27.32C272.21 26.92 273.356 26.76 274.476 26.84ZM271.676 37.4C271.463 37.32 271.316 37.1333 271.236 36.84C271.183 36.5467 271.156 36.2267 271.156 35.88C271.156 35.5067 271.183 35.12 271.236 34.72C271.316 34.32 271.383 33.9733 271.436 33.68C271.516 33.3333 271.676 33 271.916 32.68C272.183 32.3333 272.463 32.04 272.756 31.8C273.05 31.5333 273.33 31.3067 273.596 31.12C273.89 30.9333 274.116 30.8 274.276 30.72C274.196 30.6667 274.01 30.64 273.716 30.64C273.13 30.6933 272.45 30.9333 271.676 31.36C270.903 31.76 270.17 32.2667 269.476 32.88C268.756 33.5467 268.09 34.2933 267.476 35.12C266.863 35.92 266.303 36.76 265.796 37.64C265.316 38.52 264.903 39.4 264.556 40.28C264.236 41.1333 264.023 41.9333 263.916 42.68C263.73 43.6933 263.77 44.5467 264.036 45.24C264.303 45.9067 264.876 46.2667 265.756 46.32C266.396 46.3467 267.063 46.1867 267.756 45.84C268.45 45.4667 269.13 44.9733 269.796 44.36C270.463 43.7467 271.103 43.04 271.716 42.24C272.356 41.4133 272.93 40.56 273.436 39.68C273.943 38.7733 274.37 37.88 274.716 37C275.063 36.12 275.29 35.3067 275.396 34.56L275.476 34.36C275.263 34.36 275.01 34.4533 274.716 34.64C274.45 34.8 274.183 35 273.916 35.24C273.676 35.48 273.45 35.7333 273.236 36C273.05 36.2667 272.916 36.5067 272.836 36.72L271.676 37.4Z" fill="#FF4C13"/>
</svg>
